:SAMPLES-PER-SECOND 30
:FULLY-SPECIFIED
:DEGREES
951
root  13.888 40.5655 10.6644 162.648 84.6635 167.969
RightUpLeg  4.06932 -12.5872 -12.062
RightLeg  8.46571 -12.2701 2.54466
RightFoot  -1.93554 -0.254378 2.93304
RightToes  0.000481921 0.542163 -0.142578
Spine  -2.75314 -3.6041 -6.1587
Spine1  15.2847 -6.29116 8.75989
HEad  18.954 4.61075 -1.45963
LeftShoulder1  8.48057 -14.7085 -40.2977
LeftArm  -12.6119 -60.0324 -16.6743
LeftForeArm  2.56353 -17.0854 -6.50679
LeftHand  -0.25398 0.0180481 5.50724
RightShoulder  5.87947 10.3252 36.5201
RightArm  7.63278 -12.9124 35.433
RightForeArm  146.704 58.9153 161.464
RightHand  -1.19526 2.00984 -18.8388
LeftUpLeg  3.89763 7.67312 9.8944
LeftLeg  0.641787 9.16861 -2.87955
LeftFoot  4.63699 0.895341 -6.57638
LeftToes  1.06245e-005 4.65869e-005 -8.65517e-006
952
root  13.9126 40.5665 10.6448 162.45 84.7686 167.753
RightUpLeg  4.08671 -12.5271 -12.0611
RightLeg  8.40662 -12.2162 2.5323
RightFoot  -1.91382 -0.2572 2.9679
RightToes  0.000481921 0.542163 -0.142578
Spine  -2.8379 -3.53814 -5.86575
Spine1  15.3861 -6.12872 8.42
HEad  18.8685 4.42359 -1.19265
LeftShoulder1  8.64492 -14.7219 -41.1147
LeftArm  -7.99043 -57.1404 -17.7066
LeftForeArm  -1.05833 -23.1767 -5.09269
LeftHand  -0.25398 0.0180481 5.50724
RightShoulder  5.87032 10.2892 36.5639
RightArm  7.54011 -13.0386 35.5214
RightForeArm  146.728 58.8722 161.496
RightHand  -1.19833 2.01113 -18.882
LeftUpLeg  3.93451 7.71881 9.91308
LeftLeg  0.6835 9.2152 -2.92227
LeftFoot  4.55328 0.887449 -6.55136
LeftToes  1.06245e-005 4.65869e-005 -8.65517e-006
953
root  13.9337 40.5671 10.6298 162.105 84.8232 167.374
RightUpLeg  4.07291 -12.5157 -12.0896
RightLeg  8.39956 -12.165 2.51342
RightFoot  -1.91451 -0.261014 3.0191
RightToes  0.000481921 0.542163 -0.142578
Spine  -2.90031 -3.46458 -5.61594
Spine1  15.4714 -5.94484 8.053
HEad  18.7872 4.24655 -0.835148
LeftShoulder1  8.77731 -14.7477 -41.7312
LeftArm  -9.24824 -54.2306 -18.1943
LeftForeArm  1.48214 -28.3346 -6.01832
LeftHand  -0.25398 0.0180481 5.50724
RightShoulder  5.85193 10.2112 36.669
RightArm  7.5086 -13.064 35.5197
RightForeArm  146.524 58.8409 161.5
RightHand  -1.22671 2.0856 -19.1334
LeftUpLeg  3.95096 7.7661 9.91117
LeftLeg  0.699917 9.22775 -2.98665
LeftFoot  4.5028 0.877667 -6.50014
LeftToes  1.06245e-005 4.65869e-005 -8.65517e-006
954
root  13.9536 40.5678 10.6182 161.959 84.8019 167.179
RightUpLeg  4.06785 -12.5391 -12.1357
RightLeg  8.38658 -12.1571 2.52487
RightFoot  -1.91923 -0.26338 3.04872
RightToes  0.000481921 0.542163 -0.142578
Spine  -3.01286 -3.37966 -5.44026
Spine1  15.6399 -5.782 7.78763
HEad  18.7476 3.78555 -0.532593
LeftShoulder1  8.89523 -14.7927 -42.2213
LeftArm  -10.0553 -51.3712 -18.7654
LeftForeArm  3.49842 -33.2773 -7.19028
LeftHand  -0.25398 0.0180481 5.50724
RightShoulder  5.81668 10.1151 36.7101
RightArm  7.42483 -13.077 35.4796
RightForeArm  146.469 58.7856 161.532
RightHand  -1.2662 2.25039 -19.3267
LeftUpLeg  3.93626 7.78168 9.88687
LeftLeg  0.696732 9.20295 -3.0252
LeftFoot  4.4686 0.870751 -6.46329
LeftToes  1.06245e-005 4.65869e-005 -8.65517e-006
955
root  13.9754 40.5692 10.6069 162.14 84.7525 167.316
RightUpLeg  4.10024 -12.5467 -12.1643
RightLeg  8.32571 -12.1969 2.55746
RightFoot  -1.90445 -0.265146 3.06991
RightToes  0.000481921 0.542163 -0.142578
Spine  -3.13908 -3.28568 -5.30611
Spine1  15.8544 -5.64775 7.62962
HEad  18.7171 3.1729 -0.360805
LeftShoulder1  8.99963 -14.8192 -42.6852
LeftArm  -10.5636 -48.5095 -19.3759
LeftForeArm  4.94928 -38.2911 -8.54594
LeftHand  -0.25398 0.0180481 5.50724
RightShoulder  5.77323 10.0308 36.6565
RightArm  7.30441 -13.0883 35.4486
RightForeArm  146.519 58.6885 161.602
RightHand  -1.29029 2.36105 -19.4162
LeftUpLeg  3.92259 7.78154 9.87252
LeftLeg  0.683034 9.15386 -3.03739
LeftFoot  4.42721 0.867558 -6.455
LeftToes  1.06245e-005 4.65869e-005 -8.65517e-006
956
root  13.9991 40.5719 10.5953 162.444 84.7403 167.582
RightUpLeg  4.14546 -12.4897 -12.1453
RightLeg  8.22553 -12.2698 2.56509
RightFoot  -1.86887 -0.268622 3.11843
RightToes  0.000481921 0.542163 -0.142578
Spine  -3.21775 -3.18925 -5.16765
Spine1  16.0169 -5.5141 7.48053
HEad  18.6859 2.76672 -0.2629
LeftShoulder1  9.08377 -14.8087 -43.1361
LeftArm  -10.9095 -45.5805 -19.8322
LeftForeArm  6.81459 -43.5392 -10.1886
LeftHand  -0.25398 0.0180481 5.50724
RightShoulder  5.73312 9.94509 36.6312
RightArm  7.24339 -13.005 35.4517
RightForeArm  146.484 58.599 161.659
RightHand  -1.26713 2.21858 -19.4173
LeftUpLeg  3.93157 7.7904 9.88367
LeftLeg  0.658418 9.124 -3.04728
LeftFoot  4.38736 0.866076 -6.4583
LeftToes  1.06245e-005 4.65869e-005 -8.65517e-006
957
root  14.0227 40.5754 10.5849 162.627 84.7661 167.714
RightUpLeg  4.163 -12.3851 -12.0967
RightLeg  8.12089 -12.3524 2.537
RightFoot  -1.83518 -0.273583 3.19077
RightToes  0.000481921 0.542163 -0.142578
Spine  -3.24972 -3.09117 -5.03667
Spine1  16.0809 -5.37246 7.3347
HEad  18.7016 2.58355 -0.183314
LeftShoulder1  9.18251 -14.8081 -43.6342
LeftArm  -11.1207 -42.5257 -19.8843
LeftForeArm  9.66013 -48.9888 -12.2068
LeftHand  -0.25398 0.0180481 5.50724
RightShoulder  5.69888 9.85241 36.6696
RightArm  7.22618 -12.8794 35.5162
RightForeArm  146.492 58.5586 161.687
RightHand  -1.20805 1.91379 -19.2718
LeftUpLeg  3.93949 7.79833 9.89311
LeftLeg  0.624147 9.14133 -3.05962
LeftFoot  4.36592 0.864875 -6.45876
LeftToes  1.06245e-005 4.65869e-005 -8.65517e-006
958
root  14.045 40.5782 10.5763 162.612 84.7894 167.627
RightUpLeg  4.14644 -12.3014 -12.0679
RightLeg  8.03958 -12.4092 2.51197
RightFoot  -1.81992 -0.277544 3.24831
RightToes  0.000481921 0.542163 -0.142578
Spine  -3.24783 -2.99682 -4.96364
Spine1  16.0613 -5.25721 7.28841
HEad  18.7764 2.35852 -0.125408
LeftShoulder1  9.31378 -14.8331 -44.2281
LeftArm  -11.3301 -39.3086 -19.5693
LeftForeArm  13.2418 -54.5385 -14.7957
LeftHand  -0.25398 0.0180481 5.50724
RightShoulder  5.6692 9.79344 36.6366
RightArm  7.14298 -12.8689 35.6433
RightForeArm  146.75 58.5408 161.72
RightHand  -1.17852 1.82124 -19.0449
LeftUpLeg  3.92103 7.78929 9.87453
LeftLeg  0.590802 9.1896 -3.06847
LeftFoot  4.35414 0.863847 -6.45853
LeftToes  1.06245e-005 4.65869e-005 -8.65517e-006
959
root  14.0672 40.5802 10.5681 162.471 84.815 167.408
RightUpLeg  4.115 -12.2652 -12.0703
RightLeg  7.98443 -12.4171 2.51344
RightFoot  -1.81212 -0.279294 3.27223
RightToes  0.000481921 0.542163 -0.142578
Spine  -3.20328 -2.92561 -4.93927
Spine1  16.0101 -5.18951 7.32075
HEad  18.8359 2.0645 -0.0535588
LeftShoulder1  9.40293 -14.8017 -44.7525
LeftArm  -11.6868 -35.9347 -19.2981
LeftForeArm  17.4032 -60.0808 -18.2863
LeftHand  -0.25398 0.0180481 5.50724
RightShoulder  5.6468 9.78748 36.4913
RightArm  6.9833 -12.9264 35.7769
RightForeArm  147.149 58.517 161.77
RightHand  -1.21212 2.08239 -18.9202
LeftUpLeg  3.89571 7.77795 9.8453
LeftLeg  0.561532 9.24748 -3.08109
LeftFoot  4.33471 0.862767 -6.45789
LeftToes  1.06245e-005 4.65869e-005 -8.65517e-006
960
root  14.0916 40.5829 10.5591 162.298 84.8931 167.162
RightUpLeg  4.07632 -12.233 -12.0626
RightLeg  7.93396 -12.3855 2.5198
RightFoot  -1.79204 -0.280069 3.28165
RightToes  0.000481921 0.542163 -0.142578
Spine  -3.15184 -2.87536 -4.86992
Spine1  15.9955 -5.11939 7.25521
HEad  18.8211 1.89624 0.117668
LeftShoulder1  9.37015 -14.6462 -44.9884
LeftArm  -12.199 -32.4785 -19.4295
LeftForeArm  22.5997 -65.3994 -23.1039
LeftHand  -0.25398 0.0180481 5.50724
RightShoulder  5.63691 9.78832 36.4162
RightArm  6.84734 -12.8816 35.8377
RightForeArm  147.446 58.495 161.81
RightHand  -1.25591 2.36547 -18.9031
LeftUpLeg  3.89661 7.78925 9.84129
LeftLeg  0.525345 9.32328 -3.10852
LeftFoot  4.30683 0.861471 -6.45712
LeftToes  1.06245e-005 4.65869e-005 -8.65517e-006
961
root  14.1191 40.5859 10.5492 162.108 85.0341 166.895
RightUpLeg  4.02384 -12.1732 -12.0224
RightLeg  7.87224 -12.3325 2.5112
RightFoot  -1.76379 -0.281261 3.29813
RightToes  0.000481921 0.542163 -0.142578
Spine  -3.17471 -2.79149 -4.6955
Spine1  16.0539 -4.96614 7.02128
HEad  18.7812 1.79574 0.379062
LeftShoulder1  9.26767 -14.4271 -45.0427
LeftArm  -12.749 -29.1013 -19.9166
LeftForeArm  29.471 -70.1687 -29.7601
LeftHand  -0.25398 0.0180481 5.50724
RightShoulder  5.63879 9.75267 36.5411
RightArm  6.76822 -12.8128 35.7778
RightForeArm  147.534 58.4575 161.842
RightHand  -1.2516 2.35783 -18.8579
LeftUpLeg  3.91561 7.82198 9.86509
LeftLeg  0.486051 9.42614 -3.14725
LeftFoot  4.2705 0.859483 -6.45672
LeftToes  1.06245e-005 4.65869e-005 -8.65517e-006
962
root  14.1487 40.5877 10.5389 161.879 85.1709 166.581
RightUpLeg  3.97066 -12.1178 -11.9879
RightLeg  7.81091 -12.268 2.50298
RightFoot  -1.751 -0.282697 3.31894
RightToes  0.000481921 0.542163 -0.142578
Spine  -3.28055 -2.62258 -4.47972
Spine1  16.1582 -4.71663 6.77226
HEad  18.7951 1.4814 0.605333
LeftShoulder1  9.22353 -14.259 -45.261
LeftArm  -13.2409 -25.974 -20.4932
LeftForeArm  38.797 -74.1639 -39.0433
LeftHand  -0.25398 0.0180481 5.50724
RightShoulder  5.63984 9.6937 36.7336
RightArm  6.67148 -12.9582 35.6245
RightForeArm  147.395 58.3644 161.891
RightHand  -1.23139 2.23407 -18.8488
LeftUpLeg  3.91885 7.85324 9.88402
LeftLeg  0.474311 9.52647 -3.1823
LeftFoot  4.21368 0.855424 -6.45399
LeftToes  1.06245e-005 4.65869e-005 -8.65517e-006
963
root  14.1776 40.5885 10.5275 161.69 85.2261 166.325
RightUpLeg  3.95254 -12.1025 -11.9987
RightLeg  7.7661 -12.219 2.5131
RightFoot  -1.76246 -0.283782 3.33481
RightToes  0.000481921 0.542163 -0.142578
Spine  -3.38018 -2.4007 -4.30411
Spine1  16.2623 -4.43688 6.61802
HEad  18.8583 0.946166 0.754281
LeftShoulder1  9.26763 -14.167 -45.7311
LeftArm  -13.6559 -23.14 -21.0274
LeftForeArm  52.1351 -77.3057 -52.432
LeftHand  -0.25398 0.0180481 5.50724
RightShoulder  5.62659 9.63085 36.8342
RightArm  6.51662 -13.2742 35.474
RightForeArm  147.07 58.2452 161.942
RightHand  -1.25656 2.30637 -19.0499
LeftUpLeg  3.8963 7.86694 9.87454
LeftLeg  0.509855 9.5742 -3.20047
LeftFoot  4.13717 0.850227 -6.44186
LeftToes  1.06245e-005 4.65869e-005 -8.65517e-006
964
root  14.2038 40.5887 10.5153 161.714 85.1865 166.308
RightUpLeg  3.98138 -12.1089 -12.0351
RightLeg  7.73103 -12.2322 2.52785
RightFoot  -1.78213 -0.285239 3.35689
RightToes  0.000481921 0.542163 -0.142578
Spine  -3.42027 -2.2133 -4.12997
Spine1  16.3567 -4.18269 6.42849
HEad  18.9094 0.490819 0.94431
LeftShoulder1  9.31173 -14.0908 -46.1617
LeftArm  -13.9893 -20.5157 -21.5391
LeftForeArm  71.084 -79.3417 -71.4717
LeftHand  -0.25398 0.0180481 5.50724
RightShoulder  5.60558 9.55969 36.9048
RightArm  6.35586 -13.4697 35.4063
RightForeArm  146.765 58.1813 161.959
RightHand  -1.31056 2.49849 -19.3851
LeftUpLeg  3.86181 7.86601 9.84692
LeftLeg  0.567773 9.5485 -3.20165
LeftFoot  4.06762 0.84562 -6.42944
LeftToes  1.06245e-005 4.65869e-005 -8.65517e-006
